<?xml version="1.0" standalone="no"?>
<!DOCTYPE svg PUBLIC "-//W3C//DTD SVG 1.1//EN" "http://www.w3.org/Graphics/SVG/1.1/DTD/svg11.dtd" >
<svg xmlns="http://www.w3.org/2000/svg">
<metadata>Generated by IcoMoon</metadata>
<defs>
<font id="icomoon" horiz-adv-x="1024">
<font-face units-per-em="1024" ascent="960" descent="-64" />
<missing-glyph horiz-adv-x="1024" />
<glyph unicode="&#x20;" horiz-adv-x="512" d="" />
<glyph unicode="&#xfb;" glyph-name="facebook-f-brands" horiz-adv-x="640" d="M558.28 384l28.44 185.32h-177.82v120.26c0 50.7 24.84 100.12 104.48 100.12h80.84v157.78s-73.36 12.52-143.5 12.52c-146.44 0-242.16-88.76-242.16-249.44v-141.24h-162.78v-185.32h162.78v-448h200.34v448z" />
<glyph unicode="&#xe902;" glyph-name="home3" d="M1024 352l-192 192v288h-128v-160l-192 192-512-512v-32h128v-320h320v192h128v-192h320v320h128z" />
<glyph unicode="&#xe903;" glyph-name="twitter-brands" d="M918.74 656.568c0.65-9.096 0.65-18.194 0.65-27.29 0-277.44-211.166-597.116-597.116-597.116-118.904 0-229.36 34.438-322.274 94.212 16.894-1.948 33.136-2.598 50.68-2.598 98.11 0 188.426 33.136 260.548 89.664-92.264 1.95-169.584 62.376-196.224 145.544 12.996-1.948 25.99-3.248 39.636-3.248 18.842 0 37.686 2.6 55.228 7.146-96.162 19.494-168.286 103.96-168.286 205.97v2.598c27.938-15.594 60.428-25.34 94.862-26.638-56.528 37.686-93.562 102.010-93.562 174.782 0 38.984 10.394 74.72 28.588 105.908 103.31-127.35 258.6-210.516 432.73-219.614-3.248 15.594-5.198 31.836-5.198 48.080 0 115.656 93.564 209.868 209.868 209.868 60.426 0 115.004-25.34 153.34-66.274 47.43 9.096 92.912 26.64 133.198 50.68-15.596-48.732-48.732-89.666-92.264-115.654 42.234 4.546 83.168 16.244 120.852 32.486-28.584-41.582-64.322-78.616-105.256-108.506z" />
<glyph unicode="&#xe904;" horiz-adv-x="1055" d="M890.553 747.574c2.723-20.426-12.255-38.128-32.681-40.851-1.362 0-2.723 0-2.723 0-20.426-2.723-39.489 10.894-43.574 31.319 0 2.723 0 6.809 0 9.532 0 20.426 16.34 38.128 36.766 38.128 1.362 0 1.362 0 2.723 0 24.511-1.362 36.766-14.979 39.489-38.128z" />
<glyph unicode="&#xe905;" horiz-adv-x="1055" d="M887.83 153.872c1.362-20.426-14.979-36.766-34.043-38.128-1.362 0-2.723 0-4.085 0-25.872-1.362-43.574 12.255-42.213 39.489 1.362 23.149 17.702 35.404 40.851 35.404 20.426 1.362 38.128-13.617 39.489-32.681 0-2.723 0-2.723 0-4.085z" />
<glyph unicode="&#xe906;" horiz-adv-x="1055" d="M762.553 689.021c-21.787-13.617-44.936-24.511-53.106-51.745-10.894 47.66 20.426 50.383 53.106 51.745z" />
<glyph unicode="&#xe907;" horiz-adv-x="1055" d="M709.447 637.277c8.17 27.234 32.681 38.128 53.106 51.745-9.532-23.149-29.957-42.213-53.106-51.745z" />
<glyph unicode="&#xe908;" horiz-adv-x="1055" d="M295.489 464.34c21.787 0 42.213-1.362 62.638 0l1.362-24.511c-21.787-1.362-44.936 0-68.085 0v0c-9.532-1.362-17.702-1.362-27.234 0-64 16.34-96.681-28.596-111.66-72.17-13.617-39.489 9.532-93.957 46.298-110.298 35.404-14.979 81.702-35.404 118.468-4.085l31.319-1.362c-5.447-5.447-9.532-9.532-14.979-13.617-31.319-32.681-31.319-85.787 2.723-117.106 5.447-5.447 10.894-9.532 16.34-12.255 104.851-55.83 174.298-12.255 172.936 110.298 0 6.809 0 13.617 0 20.426 0 10.894 0 20.426 0 29.957h27.234c0-2.723 0-6.809 0-9.532 1.362-23.149 1.362-44.936 0-68.085 0-95.319 54.468-130.723 142.979-96.681 73.532 28.596 49.021 93.957 62.638 145.702h1.362c0 0 0 0 0 1.362 27.234 2.723 53.106 4.085 80.34 1.362 55.83-8.17 58.553 38.128 76.255 68.085s-2.723 46.298-17.702 72.17c-25.872 47.66-62.638 54.468-100.766 55.83l1.362 21.787c43.574-4.085 72.17 21.787 102.128 55.83 20.426 23.149 38.128 36.766 20.426 65.362s-14.979 61.277-64 74.894c-77.617 20.426-111.66-28.596-156.596-68.085l-28.596 2.723c12.255 14.979 21.787 34.043 35.404 44.936 24.511 9.532 43.574 28.596 53.106 51.745-2.723 17.702-10.894 36.766-8.17 51.745 10.894 43.574-19.064 55.83-49.021 66.723-31.319 10.894-57.191 25.872-99.404 1.362-32.681-16.34-51.745-50.383-50.383-87.149h-24.511c0 36.766-21.787 69.447-66.723 92.596s-123.915-14.979-140.255-61.277c-32.681-93.957 51.745-115.745 92.596-166.128 2.723-2.723 4.085-5.447 6.809-6.809l-32.681-4.085c-35.404 36.766-103.489 89.872-117.106 89.872-66.723-1.362-121.191-51.745-122.553-113.021 0-46.298 57.191-87.149 123.915-88.511h21.787zM1029.447 520.17c44.936-44.936 43.574-96.681-1.362-142.979-57.191-58.553-95.319-125.277-87.149-211.064 6.809-68.085-44.936-110.298-117.106-103.489-83.064 8.17-155.234-14.979-209.702-83.064-44.936-54.468-118.468-51.745-162.043 5.447-46.298 64-125.277 96.681-202.894 81.702-77.617-12.255-136.17 46.298-114.383 121.191 10.894 40.851-34.043 159.319-69.447 181.106-87.149 53.106-85.787 119.83 4.085 172.936 25.872 14.979 78.979 138.894 72.17 170.213-19.064 95.319 28.596 136.17 125.277 125.277 70.809-6.809 141.617 20.426 187.915 74.894 54.468 61.277 117.106 62.638 171.574 2.723 50.383-57.191 125.277-87.149 200.17-78.979 72.17 5.447 125.277-32.681 117.106-102.128 4.085-81.702 27.234-155.234 85.787-213.787v0zM970.894 411.234c21.787 1.362 38.128 19.064 36.766 40.851-1.362 20.426-20.426 36.766-40.851 35.404 0 0 0 0-1.362 0-23.149 0-39.489-12.255-39.489-36.766-1.362-20.426 13.617-38.128 34.043-39.489 4.085-1.362 8.17-1.362 10.894 0v0zM855.149 706.723c20.426 0 36.766 17.702 35.404 38.128 0 1.362 0 2.723 0 2.723-4.085 23.149-14.979 38.128-39.489 36.766-20.426 1.362-38.128-14.979-39.489-35.404 0-1.362 0-1.362 0-2.723-1.362-20.426 13.617-39.489 35.404-40.851 2.723 0 5.447 0 8.17 1.362v0zM849.702 115.745c20.426-1.362 36.766 13.617 38.128 34.043 0 1.362 0 2.723 0 4.085 0 20.426-16.34 36.766-36.766 36.766-1.362 0-1.362 0-2.723 0-23.149 0-39.489-10.894-40.851-35.404-2.723-27.234 14.979-40.851 42.213-39.489v0zM581.447 870.128c0 23.149-13.617 36.766-39.489 38.128-23.149-1.362-38.128-12.255-39.489-36.766-2.723-19.064 10.894-35.404 29.957-38.128 2.723 0 5.447 0 8.17 0 20.426-2.723 38.128 12.255 40.851 31.319 0 1.362 0 2.723 0 5.447v0zM574.638 29.957c2.723 20.426-10.894 38.128-31.319 40.851-1.362 0-2.723 0-4.085 0-20.426 4.085-40.851-10.894-43.574-31.319 0-2.723 0-5.447 0-9.532 0-23.149 16.34-35.404 39.489-38.128 21.787 2.723 36.766 13.617 39.489 38.128v0zM231.489 713.532c20.426-1.362 38.128 13.617 39.489 35.404s-13.617 38.128-35.404 39.489c-2.723 0-4.085 0-6.809 0-23.149 1.362-39.489-9.532-40.851-34.043 1.362-28.596 16.34-42.213 43.574-40.851zM227.404 118.468c20.426 0 35.404 16.34 35.404 36.766 0 1.362 0 2.723 0 4.085-1.362 24.511-16.34 35.404-42.213 38.128-17.702-5.447-36.766-14.979-36.766-38.128-1.362-21.787 14.979-39.489 35.404-40.851 2.723 0 5.447 0 8.17 0v0zM99.404 416.681c20.426-1.362 38.128 13.617 39.489 34.043 0 1.362 0 1.362 0 2.723 0 23.149-19.064 40.851-42.213 39.489s-40.851-19.064-39.489-42.213c0-20.426 17.702-35.404 38.128-35.404 0 1.362 2.723 1.362 4.085 1.362v0z" />
<glyph unicode="&#xe909;" horiz-adv-x="1055" d="M556.936 652.255c-5.447-40.851 13.617-57.191 49.021-72.17s53.106-4.085 66.723 13.617l32.681-4.085-8.17-6.809c-32.681-25.872-31.319-49.021-14.979-85.787 21.787-53.106 65.362-25.872 96.681-31.319 8.17-2.723 16.34-4.085 24.511-5.447v-20.426c-19.064 0-38.128 0-57.191 1.362-43.574 4.085-55.83-19.064-73.532-53.106-19.064-38.128 9.532-47.66 24.511-66.723 21.787-27.234 59.915-40.851 66.723-81.702h-1.362c0 0 0 0 0-1.362-43.574 2.723-61.277 42.213-88.511 66.723-24.511 21.787-40.851 32.681-76.255 17.702-29.957-12.255-43.574-27.234-43.574-54.468h-27.234c1.362 24.511-12.255 46.298-35.404 53.106-47.66 21.787-70.809 0-98.043-28.596-13.617-14.979-29.957-27.234-44.936-42.213l-31.319 1.362c6.809 6.809 13.617 13.617 19.064 21.787 14.979 21.787 39.489 36.766 58.553 57.191 12.255 13.617 38.128 24.511 17.702 49.021-16.34 20.426-10.894 62.638-53.106 58.553l-1.362 24.511h4.085c24.511 1.362 62.638 62.638 53.106 85.787-6.809 10.894-14.979 19.064-23.149 27.234l32.681 4.085c14.979-12.255 29.957-8.17 51.745-4.085 68.085 13.617 50.383 62.638 53.106 117.106 2.723 8.17 4.085 17.702 4.085 25.872h24.511c1.362-20.426 0-43.574-1.362-66.723zM637.277 448c2.723 49.021-42.213 92.596-95.319 92.596-49.021 1.362-89.872-38.128-91.234-87.149 0 0 0 0 0 0 0-49.021 40.851-89.872 89.872-89.872 47.66-1.362 93.957 39.489 96.681 84.426v0z" />
<glyph unicode="&#xe90a;" horiz-adv-x="1055" d="M272.34 751.66c0-21.787-19.064-38.128-39.489-38.128-27.234-1.362-43.574 12.255-42.213 39.489 1.362 24.511 17.702 35.404 40.851 34.043 21.787 1.362 39.489-14.979 40.851-35.404z" />
<glyph unicode="&#xe90b;" horiz-adv-x="1055" d="M262.809 159.319c2.723-20.426-10.894-38.128-31.319-40.851-1.362 0-2.723 0-4.085 0-20.426-2.723-40.851 12.255-43.574 32.681 0 2.723 0 5.447 0 8.17 0 23.149 19.064 32.681 36.766 38.128 25.872-2.723 40.851-13.617 42.213-38.128z" />
<glyph unicode="&#xe90c;" horiz-adv-x="998" d="M268.019 790.535l-25.239 9.615c31.249 48.075 91.343 70.911 103.362 138.216 4.808 28.845 43.268 28.845 64.901-1.202 14.423-42.066-2.404-64.901-44.469-72.113-38.46-16.826-58.892-57.69-98.554-74.516z" />
<glyph unicode="&#xe90d;" horiz-adv-x="998" d="M349.746 875.869c28.845 12.019 73.315 8.413 61.296 61.296 1.202-51.681 46.873-74.516 73.315-110.573l-14.423-14.423c-46.873 8.413-79.324 44.469-120.188 63.7z" />
<glyph unicode="&#xe90e;" horiz-adv-x="998" d="M998.761 568.188c0 31.249-10.817 43.268-40.864 43.268-48.075-1.202-96.15 2.404-144.225-1.202-43.268-3.606-58.892 8.413-58.892 55.286 2.404 123.793 0 123.793-128.601 123.793-50.479 0-104.563-12.019-143.023 37.258-9.615 4.808-15.624-1.202-21.634-7.211h-1.202c2.404-2.404 4.808-4.808 8.413-6.009 15.624-24.038-1.202-24.038-18.028-24.038-61.296 0-122.592 1.202-182.685 1.202 4.808 4.808 10.817 10.817 15.624 15.624h-4.808c-12.019 1.202-24.038-1.202-34.854-4.808-62.498-24.038-126.197-8.413-189.897-10.817-39.662 0-54.085-9.615-54.085-50.479 2.404-152.638 2.404-304.075 0-456.714-1.202-40.864 14.423-51.681 52.883-50.479 108.169 2.404 216.338-2.404 324.507 1.202 51.681 1.202 69.709-9.615 67.305-64.901-4.808-110.573-1.202-110.573 103.362-118.986 3.606 0 6.009-4.808 10.817-8.413-7.211-10.817-14.423-22.836-20.432-34.854-8.413-21.634-50.479-42.066-18.028-63.7 30.047-20.432 37.258 24.038 54.085 40.864 12.019 13.221 21.634 28.845 31.249 44.469s26.441 25.239 44.469 24.038c90.141 1.202 188.695 24.038 231.962-92.545 1.202-1.202 2.404-3.606 3.606-4.808 8.413-12.019 20.432-25.239 34.854-15.624 16.826 10.817 8.413 27.643 0 42.066-13.221 20.432-32.451 38.46-39.662 69.709 26.441 0 48.075 1.202 69.709 0 36.056-2.404 49.277 12.019 48.075 49.277-1.202 155.042-1.202 311.286 0 467.531zM443.493 462.423c0-38.46 0-75.718 1.202-114.178-7.211-9.615-18.028-15.624-28.845-18.028 7.211-1.202 13.221-4.808 19.23-8.413 15.624-28.845 16.826-49.277-25.239-49.277-108.169 0-216.338 1.202-324.507-1.202-33.653 0-39.662 14.423-39.662 43.268 1.202 129.803 1.202 259.606 0 389.408 0 36.056 14.423 43.268 45.671 42.066 189.897-1.202 379.793-2.404 569.69-1.202 38.46 0 56.488-8.413 50.479-49.277-1.202-7.211 2.404-16.826 0-24.038-8.413-20.432 20.432-60.094-22.836-61.296-39.662-1.202-21.634 34.854-22.836 55.286-1.202 25.239-10.817 34.854-36.056 34.854-165.859 0-331.718 0-497.577 0-30.047 0-36.056-15.624-36.056-40.864 0-106.967 1.202-217.54 2.404-326.911h37.258c-13.221 4.808-21.634 18.028-19.23 31.249 2.404 105.765-8.413 211.531 6.009 317.296 156.244 0 312.488 0 467.531 0 24.038 0 52.883 8.413 52.883-34.854s-30.047-34.854-54.085-34.854c-145.427-3.606-145.427-3.606-145.427-149.033v0zM915.831 92.244c-132.207 1.202-264.413 1.202-396.62 0-31.249 0-36.056 14.423-34.854 40.864 0 132.207 1.202 264.413-1.202 396.62 0 37.258 15.624 42.066 46.873 42.066 126.197-1.202 252.394-1.202 378.592 0 33.653 0 46.873-9.615 45.671-44.469-2.404-66.103-1.202-132.207-1.202-198.31v0c0-66.103-1.202-132.207 0-198.31 1.202-27.643-8.413-38.46-37.258-38.46v0z" />
<glyph unicode="&#xe90f;" horiz-adv-x="998" d="M433.878 321.803c-99.756 0-199.512-1.202-300.469-1.202-12.019 0-28.845-6.009-36.056 12.019 24.038 85.333 3.606 171.869 10.817 257.202 2.404 30.047-12.019 63.7 12.019 90.141 0-99.756-2.404-200.714-3.606-301.671 0-20.432 4.808-34.854 28.845-33.653 98.554 3.606 198.31-6.009 296.864 4.808-1.202-9.615-4.808-18.028-8.413-27.643z" />
<glyph unicode="&#xe910;" horiz-adv-x="998" d="M395.418 916.732c-3.606-9.615-8.413-16.826-20.432-15.624-7.211 1.202-13.221 7.211-13.221 15.624 0 0 0 0 0 1.202 0 10.817 7.211 16.826 19.23 15.624 8.413-2.404 14.423-8.413 14.423-16.826z" />
<glyph unicode="&#xe911;" horiz-adv-x="998" d="M876.169 476.845c2.404-10.817 4.808-22.836 6.009-34.854 3.606-90.141-20.432-108.169-110.573-88.939-15.624 3.606-26.441 9.615-25.239 26.441 2.404 32.451-7.211 67.305 7.211 98.554 40.864 8.413 82.93 7.211 122.592-1.202z" />
<glyph unicode="&#xe912;" horiz-adv-x="998" d="M722.329 267.718l-1.202-1.202c42.066 20.432 72.113-10.817 69.709-70.911-7.211-4.808-14.423-6.009-22.836-6.009-25.239 2.404-56.488-12.019-70.911 15.624s18.028 40.864 25.239 62.498z" />
<glyph unicode="&#xe913;" horiz-adv-x="998" d="M793.239 201.615c-20.432 26.441-20.432 74.516-72.113 63.7-4.808 15.624 2.404 32.451 16.826 39.662 19.23 7.211 25.239-13.221 33.653-25.239 15.624-22.836 28.845-45.671 43.268-68.507-4.808-12.019-1.202-31.249-24.038-25.239-1.202 6.009-1.202 12.019 2.404 15.624z" />
<glyph unicode="&#xe914;" horiz-adv-x="998" d="M662.235 309.784c-78.122-22.836-102.16-9.615-105.765 58.892 4.808 12.019 12.019 19.23 25.239 10.817 10.817-32.451 36.056-45.671 68.507-50.479 8.413-3.606 14.423-8.413 12.019-19.23z" />
<glyph unicode="&#xe915;" horiz-adv-x="998" d="M794.441 188.394l21.634 24.038c10.817-14.423 28.845-32.451-6.009-34.854-43.268-3.606-86.535-3.606-129.803 0-32.451 2.404-19.23 20.432-6.009 36.056 34.854-32.451 81.728-10.817 120.188-25.239z" />
<glyph unicode="&#xe916;" horiz-adv-x="998" d="M794.441 188.394c-40.864 6.009-86.535-16.826-120.188 24.038 12.019 21.634 20.432 46.873 48.075 54.085 7.211-24.038-19.23-37.258-20.432-63.7 30.047-6.009 61.296-6.009 91.343-1.202 1.202-3.606 1.202-8.413 1.202-13.221z" />
<glyph unicode="&#xe917;" horiz-adv-x="998" d="M662.235 309.784l-14.423 12.019c-1.202 25.239 10.817 49.277 8.413 74.516 4.808 7.211 9.615 13.221 19.23 8.413 24.038-34.854 24.038-67.305-13.221-94.948z" />
<glyph unicode="&#xe918;" horiz-adv-x="998" d="M674.254 404.732l-13.221-13.221c-20.432-7.211-43.268-2.404-60.094 10.817-3.606 4.808-3.606 12.019 1.202 16.826 27.643 13.221 52.883 14.423 72.113-14.423z" />
<glyph unicode="&#xe919;" horiz-adv-x="998" d="M876.169 476.845l-123.793 1.202c40.864 13.221 84.131 13.221 123.793-1.202z" />
<glyph unicode="&#xe91a;" horiz-adv-x="998" d="M602.141 417.953c0-3.606 0-7.211 0-12.019 0-14.423-12.019-25.239-25.239-25.239l-19.23-12.019c3.606 42.066 9.615 48.075 44.469 49.277z" />
<glyph unicode="&#xe91b;" horiz-adv-x="998" d="M807.662 462.423c37.258 6.009 55.286-4.808 56.488-43.268s-13.221-48.075-49.277-48.075c-31.249 0-49.277 6.009-45.671 42.066 2.404 28.845-6.009 62.498 38.46 49.277z" />
<glyph unicode="&#xe91c;" horiz-adv-x="998" d="M575.7 380.695l25.239 25.239c21.634 3.606 42.066-2.404 58.892-15.624 12.019-24.038 6.009-51.681-14.423-69.709-45.671-7.211-73.315 6.009-69.709 60.094z" />
<glyph unicode="&#xe91d;" horiz-adv-x="1563" d="M1411.777 506.754c47.003 1.679 65.469-11.751 63.79-60.433-3.357-88.97-3.357-179.62 0-268.59 1.679-48.682-16.787-62.111-63.79-62.111-151.082 1.679-302.164 0-453.246 1.679-43.646 0-88.97 3.357-130.938-23.502v194.728c31.895-1.679 45.325-26.859 63.79-40.289 45.325-31.895 95.685-104.079 114.151 20.144 5.036 31.895 36.931 18.466 57.075 18.466 83.934 1.679 167.869 0 251.803 1.679 25.18 0 55.397-11.751 95.685 33.574-127.58 0-235.016 0-342.452 0-25.18 0-62.111-11.751-60.433 33.574s38.61 28.538 62.111 31.895c55.397 5.036 112.472-8.393 167.869 8.393 0 8.393 0 16.787 0 26.859-58.754 0-117.508 0-176.262 0-30.216 0-55.397 1.679-55.397 41.967-1.679 43.646 26.859 40.289 55.397 40.289 115.83 0 233.338-1.679 350.846 1.679z" />
<glyph unicode="&#xe91e;" horiz-adv-x="1563" d="M1314.413 288.525c-83.934-1.679-167.869 0-251.803-1.679-20.144 0-52.039 11.751-57.075-18.466-18.466-124.223-68.826-52.039-114.151-20.144-18.466 15.108-30.216 40.289-63.79 40.289v-196.407c41.967 25.18 87.292 23.502 130.938 23.502 151.082 0 302.164 1.679 453.246-1.679 47.003 0 65.469 13.43 63.79 62.111-3.357 88.97-3.357 179.62 0 268.59 1.679 48.682-18.466 62.111-63.79 60.433-117.508-1.679-235.016-1.679-352.525-1.679-28.538 0-57.075 5.036-55.397-40.289 0-41.967 25.18-41.967 55.397-41.967 58.754 1.679 117.508 0 176.262 0 0-8.393 0-16.787 0-26.859-53.718-16.787-112.472-3.357-167.869-8.393-23.502-1.679-62.111 16.787-62.111-31.895s35.252-33.574 60.433-33.574c107.436-1.679 216.551 0 342.452 0-38.61-41.967-67.148-30.216-94.007-31.895zM1435.279 573.902c77.22 1.679 112.472-33.574 110.793-110.793-1.679-100.721 0-201.443-1.679-302.164-1.679-90.649-21.823-110.793-115.83-112.472-147.725-1.679-297.128-1.679-444.852 1.679-58.754 1.679-109.115-8.393-151.082-53.718-15.108-15.108-33.574-33.574-58.754-21.823s-21.823 36.931-21.823 58.754c0 70.505-1.679 139.331 0 209.836 1.679 48.682-16.787 62.111-63.79 62.111-188.013-1.679-374.348-1.679-562.361 0-100.721 0-127.58 28.538-129.259 130.938-1.679 134.295-1.679 268.59 0 402.885 3.357 88.97 36.931 119.187 130.938 120.866 122.544 1.679 246.767 0 369.311 0 125.902 0 251.803 1.679 377.705 0 94.007-1.679 125.902-31.895 129.259-124.223 3.357-63.79 3.357-129.259 0-193.049-5.036-58.754 20.144-70.505 72.184-68.826 119.187 1.679 240.052-1.679 359.239 0zM928.315 834.098c0 43.646-16.787 58.754-60.433 58.754-241.731-1.679-485.141-1.679-726.872 0-50.361 0-70.505-16.787-68.826-68.826 1.679-122.544 5.036-245.089 0-367.633-3.357-73.862 26.859-88.97 92.328-87.292 194.728 3.357 391.134 1.679 585.862 1.679 60.433 0 122.544 8.393 177.941-52.039 0 181.298-1.679 347.489 0 515.357z" />
<glyph unicode="&#xe91f;" horiz-adv-x="1563" d="M716.8 693.089c0-10.072-1.679-18.466-1.679-28.538-174.584-1.679-350.846-6.715-527.108 5.036 0 8.393 0 16.787 0 25.18h528.787z" />
<glyph unicode="&#xe920;" horiz-adv-x="1563" d="M607.685 602.439v-26.859h-414.636c139.331 36.931 276.984 21.823 414.636 26.859z" />
<glyph unicode="&#xe921;" horiz-adv-x="1563" d="M537.18 793.81v-18.466h-345.81v18.466h345.81z" />
<glyph unicode="&#xe922;" horiz-adv-x="786" d="M575.461 785.020c3.697-12.323-4.929-17.252-16.019-20.948-14.787 2.465-27.11 12.323-30.806 25.877-2.465 7.394 1.232 16.019 8.626 18.484 2.465 1.232 4.929 1.232 7.394 1.232 14.787 0 27.11-9.858 30.806-24.645z" />
<glyph unicode="&#xe923;" horiz-adv-x="786" d="M528.635 789.949c4.929-13.555 17.252-23.413 30.806-25.877 9.858 3.697 18.484 8.626 16.019 20.948-3.697 13.555-16.019 24.645-30.806 24.645-8.626 1.232-16.019-4.929-16.019-13.555-1.232-1.232 0-3.697 0-6.161zM533.564 839.239c45.593 3.697 72.703-18.484 77.632-66.542 1.232-16.019 17.252-23.413 28.342-30.806 35.735-18.484 56.684-56.684 52.987-97.348-2.465-30.806 9.858-44.361 41.897-41.897 20.948 1.232 51.755 9.858 55.451-22.181 3.697-35.735 20.948-82.561-9.858-103.509-34.503-23.413-29.574-46.826-29.574-76.4 0-123.225 1.232-246.45 1.232-369.675 0-73.935-22.181-93.651-97.348-93.651-170.051 0-341.333 0-511.384 0-71.471 0-89.954 19.716-91.187 91.187-1.232 126.922 0 255.076 0 381.998 0 24.645 2.465 45.593-29.574 62.845-38.2 22.181-18.484 71.471-14.787 107.206 4.929 32.039 35.735 23.413 56.684 22.181 50.522-3.697 93.651 1.232 123.225 54.219 22.181 39.432 65.309 61.613 112.135 69.006l102.277 1.232c56.684-6.161 105.974-39.432 134.315-88.722s69.006-38.2 107.206-33.271c27.11 3.697 14.787 34.503 14.787 52.987-1.232 40.664-34.503 73.935-76.4 75.167-44.361 3.697-77.632 9.858-85.025 57.916-1.232 4.929-1.232 11.090 0 16.019 2.465 18.484 18.484 32.039 36.968 32.039v0zM698.686 518.854c14.787 0 38.2-6.161 35.735 18.484-1.232 19.716-22.181 13.555-35.735 13.555-98.58 0-197.16 0-295.74 0-101.045 0-200.857 0-301.901 0-14.787 0-39.432 8.626-39.432-14.787s23.413-17.252 38.2-17.252c200.857 0 400.481 0 598.874 0v0zM696.221 423.971c0 36.968-13.555 44.361-46.826 43.129-81.329-1.232-163.889 0-245.218 0-83.793 0-167.586-1.232-252.611 0-32.039 1.232-48.058-4.929-48.058-43.129 2.465-129.386 2.465-258.773 0-386.927 0-38.2 12.323-50.522 50.522-50.522 163.889 1.232 327.779 1.232 491.668 0 36.968 0 50.522 11.090 49.29 49.29-1.232 130.619-1.232 260.005 1.232 388.159v0zM492.9 611.273c6.161 14.787-7.394 22.181-16.019 29.574-72.703 76.4-200.857 61.613-271.095-36.968 92.419 0 176.212 0 260.005 0 9.858 0 22.181-4.929 27.11 7.394z" />
<glyph unicode="&#xe924;" horiz-adv-x="786" d="M465.791 603.88c-83.793 0-167.586 0-260.005 0 70.238 99.812 198.392 113.367 271.095 36.968 7.394-8.626 22.181-16.019 16.019-29.574-4.929-12.323-17.252-7.394-27.11-7.394z" />
<glyph unicode="&#xe925;" horiz-adv-x="786" d="M465.791 871.278c3.697-18.484 3.697-38.2-1.232-57.916-9.858-30.806-34.503-54.219-64.077-65.309-11.090-2.465-23.413-4.929-34.503-7.394-11.090 1.232-22.181 1.232-32.039-1.232v0c-8.626 1.232-17.252 3.697-24.645 7.394-56.684 24.645-81.329 67.774-66.542 126.922 13.555 52.987 52.987 81.329 107.206 83.793 55.451 7.394 105.974-30.806 115.832-86.258zM421.43 846.633c1.232 43.129-27.11 67.774-70.238 66.542-40.664-1.232-65.309-23.413-64.077-65.309s25.877-60.38 66.542-64.077c39.432 2.465 67.774 22.181 67.774 62.845v0z" />
<glyph unicode="&#xe926;" horiz-adv-x="786" d="M400.481 749.285c0-7.394 1.232-13.555 1.232-20.948-6.161 3.697-13.555 7.394-20.948 9.858 7.394 3.697 13.555 7.394 19.716 11.090z" />
<glyph unicode="&#xe927;" horiz-adv-x="786" d="M401.714 728.337l-102.277-1.232c7.394 3.697 16.019 7.394 24.645 11.090 17.252-8.626 39.432-8.626 56.684 1.232 7.394-3.697 14.787-6.161 20.948-11.090z" />
<glyph unicode="&#xe928;" horiz-adv-x="786" d="M400.481 749.285c-6.161-3.697-12.323-7.394-19.716-11.090-4.929 1.232-9.858 2.465-14.787 3.697 12.323 2.465 23.413 4.929 34.503 7.394z" />
<glyph unicode="&#xe929;" horiz-adv-x="786" d="M365.978 741.892c4.929-1.232 9.858-1.232 14.787-3.697-17.252-9.858-38.2-9.858-56.684-1.232 3.697 1.232 6.161 1.232 9.858 2.465v0c11.090 0 22.181 0 32.039 2.465z" />
<glyph unicode="&#xe92a;" horiz-adv-x="786" d="M333.94 740.659c11.090 2.465 22.181 2.465 32.039 1.232-9.858-2.465-20.948-2.465-32.039-1.232z" />
<glyph unicode="&#xe92b;" horiz-adv-x="786" d="M333.94 740.659c-2.465-1.232-6.161-1.232-9.858-2.465-4.929 2.465-11.090 6.161-14.787 11.090 7.394-4.929 16.019-8.626 24.645-8.626z" />
<glyph unicode="&#xe92c;" horiz-adv-x="786" d="M309.295 748.053c4.929-3.697 9.858-7.394 14.787-11.090-8.626-2.465-17.252-6.161-24.645-11.090l9.858 22.181z" />
<glyph unicode="&#xe92d;" horiz-adv-x="786" d="M512.616 345.107c-75.167 0-151.567 0-226.734 0-9.858 0-22.181 0-20.948 14.787s11.090 14.787 22.181 14.787h109.67v-1.232h110.903c11.090 0 27.11 3.697 27.11-14.787 0-14.787-13.555-13.555-22.181-13.555z" />
<glyph unicode="&#xe92e;" horiz-adv-x="786" d="M285.882 345.107c75.167 0 151.567 0 226.734 0 9.858 0 23.413-1.232 22.181 13.555 0 17.252-16.019 14.787-27.11 14.787h-110.903v1.232h-109.67c-11.090 0-20.948-1.232-22.181-14.787s9.858-14.787 20.948-14.787zM280.953 407.952c81.329-1.232 163.889-1.232 245.218 0 32.039 1.232 49.29-6.161 48.058-43.129-1.232-34.503-7.394-54.219-46.826-52.987-43.129 1.232-86.258 0-129.386 0v0c-38.2 0-77.632 1.232-117.064 0-34.503-1.232-57.916 3.697-57.916 49.29s22.181 46.826 57.916 46.826z" />
<glyph unicode="&#xe92f;" horiz-adv-x="786" d="M102.277 552.125c101.045 1.232 200.857 0 301.901 0 98.58 0 197.16 0 295.74 0 13.555 0 34.503 6.161 35.735-13.555 1.232-25.877-22.181-18.484-35.735-18.484-199.625 0-398.017 0-597.641 0-16.019 0-39.432-4.929-38.2 17.252s23.413 14.787 38.2 14.787z" />
<glyph unicode="&#xe930;" horiz-adv-x="1196" d="M1107.795 325.148c8.521-8.521 18.463-17.043 8.521-29.825-8.521-9.942-18.463-18.463-28.405-25.564-17.043-2.84-24.144 8.521-31.245 15.623-66.752 62.491-133.503 124.982-200.255 187.473-14.202 12.782-29.825 22.724-8.521 44.028 17.043 15.623 29.825 28.405 51.129 5.681 68.172-66.752 139.184-132.083 208.777-197.415z" />
<glyph unicode="&#xe931;" horiz-adv-x="1196" d="M911.8 211.528c0-4.261 0-8.521 0-12.782h-845.049v12.782h845.049z" />
<glyph unicode="&#xe932;" horiz-adv-x="1196" d="M812.383 597.836c12.782-1.42 28.405-14.202 22.724-28.405-7.101-17.043-22.724-29.825-41.187-34.086-12.782 7.101-28.405 15.623-21.304 29.825s17.043 35.506 39.767 32.666z" />
<glyph unicode="&#xe933;" horiz-adv-x="1196" d="M722.907 660.327c18.463-5.681 41.187-7.101 45.448-32.666-8.521-15.623-21.304-34.086-34.086-29.825-21.304 4.261-31.245 25.564-34.086 46.868-1.42 15.623 11.362 18.463 22.724 15.623z" />
<glyph unicode="&#xe934;" horiz-adv-x="1196" d="M734.269 596.416c14.202-2.84 26.985 14.202 34.086 29.825-4.261 25.564-26.985 26.985-45.448 32.666-11.362 4.261-24.144 0-22.724-15.623 2.84-19.883 14.202-42.607 34.086-46.868zM793.92 535.345c18.463 2.84 34.086 15.623 41.187 34.086 5.681 14.202-9.942 26.985-22.724 28.405-22.724 2.84-32.666-17.043-39.767-32.666s8.521-24.144 21.304-29.825zM1106.374 325.148c-69.592 65.331-140.605 132.083-208.777 198.835-22.724 22.724-35.506 8.521-51.129-5.681-22.724-19.883-5.681-31.245 8.521-44.028 66.752-62.491 133.503-124.982 200.255-187.473 8.521-7.101 14.202-19.883 31.245-15.623 9.942 8.521 19.883 17.043 28.405 25.564 11.362 11.362 1.42 19.883-8.521 28.405v0zM1124.838 363.495c15.623-11.362 29.825-24.144 42.607-38.347 32.666-31.245 48.288-68.172 12.782-105.098s-76.693-32.666-113.62 1.42c-46.868 42.607-92.316 86.635-140.605 132.083-11.362-53.969-11.362-53.969 31.245-82.374 38.347-25.564 19.883-63.911 19.883-97.997-1.42-35.506-29.825-36.926-56.81-36.926-72.433 0-146.286 0-232.921 0 29.825-53.969 53.969-97.997 76.693-140.605 11.362-19.883 21.304-41.187-4.261-55.39-21.304-11.362-38.347 4.261-44.028 22.724-21.304 71.012-73.853 73.853-134.924 69.592-49.709-2.84-99.417-2.84-149.126 0-69.592 1.42-139.184 9.942-167.589-76.693-4.261-14.202-18.463-22.724-32.666-19.883-2.84 1.42-5.681 1.42-8.521 4.261-22.724 12.782-15.623 31.245-5.681 48.288 26.985 45.448 52.549 90.896 83.795 147.706h-240.022c-24.144 0-53.969-1.42-53.969 29.825 0 35.506-25.564 86.635 19.883 100.838 46.868 15.623 39.767 44.028 39.767 75.273 0 180.372 1.42 359.323-1.42 539.695-1.42 58.23 15.623 79.534 76.693 78.114 231.501-2.84 463.001-4.261 694.502 0 63.911 1.42 86.635-19.883 78.114-80.954-1.42-14.202 2.84-28.405 0-42.607-42.607-207.356 41.187-359.323 210.197-472.943zM796.76 475.695c-49.709 38.347-99.417 79.534-129.243 139.184-11.362 24.144-19.883 52.549-4.261 73.853 17.043 25.564 46.868 12.782 72.433 7.101 44.028-9.942 78.114-39.767 120.721-75.273 0 89.476-1.42 166.169 0 242.863 0 32.666-15.623 38.347-42.607 38.347-214.458 0-430.336 0-644.793 0-29.825 0-41.187-9.942-41.187-41.187 1.42-181.792 1.42-363.584 0-545.376 0-31.245 11.362-41.187 41.187-41.187 214.458 1.42 430.336 1.42 644.793 0 28.405 0 41.187 7.101 42.607 39.767 4.261 63.911-4.261 117.881-59.65 161.908v0zM911.8 198.746c0 4.261 0 8.521 0 12.782h-845.049v-12.782h845.049zM603.606 87.967c11.362 0 31.245-5.681 29.825 17.043 0 14.202-11.362 26.985-25.564 28.405-75.273 1.42-150.546 1.42-225.82 0-14.202-1.42-25.564-14.202-25.564-28.405-2.84-22.724 17.043-17.043 28.405-17.043 35.506-1.42 71.012 0 105.098 0v0c38.347 0 75.273 0 113.62 0v0z" />
<glyph unicode="&#xe935;" horiz-adv-x="1196" d="M607.867 604.938c19.883 1.42 36.926-14.202 38.347-34.086 0-1.42 0-2.84 0-4.261-2.84-29.825-21.304-35.506-44.028-34.086-18.463 0-34.086 14.202-35.506 34.086 0 1.42 0 1.42 0 2.84-1.42 19.883 14.202 36.926 32.666 36.926 2.84-1.42 5.681-1.42 8.521-1.42z" />
<glyph unicode="&#xe936;" horiz-adv-x="1196" d="M632.011 105.010c1.42-22.724-18.463-17.043-29.825-17.043-36.926-1.42-75.273 0-112.2 0v0c-35.506 0-71.012-1.42-105.098 0-11.362 0-31.245-5.681-28.405 17.043 0 14.202 11.362 26.985 25.564 28.405 75.273 0 150.546 1.42 225.82 0 14.202-1.42 24.144-14.202 24.144-28.405z" />
<glyph unicode="&#xe937;" horiz-adv-x="1196" d="M514.13 572.272c1.42-21.304-14.202-39.767-34.086-41.187-1.42 0-4.261 0-5.681 0-19.883-2.84-38.347 9.942-41.187 29.825 0 0 0 0 0 1.42-4.261 25.564 11.362 39.767 35.506 42.607 21.304 2.84 41.187-11.362 45.448-32.666z" />
<glyph unicode="&#xe938;" horiz-adv-x="1196" d="M380.627 569.431c-4.261-24.144-15.623-38.347-42.607-38.347s-39.767 14.202-38.347 39.767c0 18.463 15.623 34.086 34.086 34.086 1.42 0 1.42 0 2.84 0 21.304 2.84 41.187-11.362 44.028-32.666 0-1.42 0-2.84 0-2.84z" />
<glyph unicode="&#xe9bd;" glyph-name="menu" d="M64 768h896v-192h-896zM64 512h896v-192h-896zM64 256h896v-192h-896z" />
</font>
</defs>
</svg>
